<svg width="2370" height="455" viewBox="0 0 2370 455" fill="none" xmlns="http://www.w3.org/2000/svg">
<path opacity="0.3" d="M0.445197 447L122.302 7.87685H153.04L274.897 447H246.354L137.671 49.0446L28.9882 447H0.445197ZM49.8466 328.437L56.4334 303.187H218.909L225.496 328.437H49.8466ZM545.841 447V7.87685H650.133C680.14 7.87685 703.56 11.1703 720.393 17.7571C737.592 24.3439 749.851 35.688 757.169 51.7892C764.488 67.5244 768.147 89.1146 768.147 116.56C768.147 135.223 766.318 150.775 762.658 163.217C759.365 175.293 753.693 185.173 745.642 192.857C737.592 200.176 726.431 206.58 712.159 212.069C730.09 216.826 743.996 223.596 753.876 232.379C764.122 240.795 771.258 252.322 775.283 266.96C779.674 281.597 781.87 300.626 781.87 324.046C781.87 355.15 778.211 379.668 770.892 397.599C763.573 415.53 751.314 428.337 734.115 436.022C717.282 443.341 693.862 447 663.856 447H545.841ZM573.286 421.75H663.856C686.91 421.75 705.023 418.823 718.197 412.968C731.371 406.747 740.702 396.501 746.191 382.229C751.68 367.958 754.425 348.563 754.425 324.046C754.425 299.528 751.68 280.316 746.191 266.411C740.702 252.139 731.371 242.076 718.197 236.221C705.023 230.366 686.91 227.438 663.856 227.438H573.286V421.75ZM573.286 202.189H650.133C673.187 202.189 691.301 199.627 704.475 194.504C717.648 189.381 726.98 180.599 732.469 168.157C737.958 155.349 740.702 138.15 740.702 116.56C740.702 95.3355 737.958 78.6854 732.469 66.6096C726.98 54.5337 717.648 45.9342 704.475 40.8111C691.301 35.688 673.187 33.1264 650.133 33.1264H573.286V202.189ZM1071.48 447V7.87685H1304.21V33.1264H1081.91L1098.92 16.1104V213.716L1081.91 202.189H1230.66V227.438H1081.91L1098.92 215.911V433.277L1087.4 421.75H1304.21V447H1071.48ZM1709.64 454.685C1684.39 454.685 1663.35 450.842 1646.51 443.158C1629.68 435.473 1616.14 423.031 1605.89 405.832C1595.65 388.267 1588.33 364.847 1583.94 335.572C1579.55 306.298 1577.35 270.07 1577.35 226.89C1577.35 183.709 1579.55 147.664 1583.94 118.755C1588.33 89.4806 1595.65 66.2436 1605.89 49.0446C1616.14 31.4797 1629.68 19.0379 1646.51 11.7192C1663.35 4.03452 1684.39 0.192195 1709.64 0.192195C1731.59 0.192195 1749.71 2.93671 1763.98 8.42575C1778.62 13.9148 1790.69 23.0632 1800.21 35.8709C1809.72 48.6787 1817.95 66.4266 1824.91 89.1146L1798.56 98.446C1792.71 79.7832 1785.94 65.1458 1778.25 54.5337C1770.93 43.9215 1761.78 36.4198 1750.81 32.0286C1740.19 27.6374 1726.47 25.4418 1709.64 25.4418C1683.29 25.4418 1662.43 31.6627 1647.06 44.1045C1631.69 56.1804 1620.72 76.8558 1614.13 106.131C1607.91 135.406 1604.8 175.658 1604.8 226.89C1604.8 278.121 1607.91 318.556 1614.13 348.197C1620.72 377.472 1631.69 398.331 1647.06 410.772C1662.43 423.214 1683.29 429.435 1709.64 429.435C1726.47 429.435 1740.19 427.239 1750.81 422.848C1761.78 418.457 1770.93 411.138 1778.25 400.892C1785.94 390.28 1792.71 376.008 1798.56 358.078L1824.91 366.86C1817.95 389.182 1809.72 406.747 1800.21 419.555C1790.69 432.363 1778.8 441.511 1764.53 447C1750.26 452.123 1731.96 454.685 1709.64 454.685ZM2208.93 447V7.87685H2236.37V447H2208.93ZM2075.54 33.1264V7.87685H2369.75V33.1264H2075.54Z" fill="white"/>
</svg>
