<svg width="1828" height="369" viewBox="0 0 1828 369" fill="none" xmlns="http://www.w3.org/2000/svg">
<path opacity="0.3" d="M0.19 362L98.7136 6.96H123.566L222.09 362H199.012L111.14 40.245L23.2676 362H0.19ZM40.132 266.139L45.4576 245.724H176.822L182.148 266.139H40.132ZM418.964 362V6.96H503.286C527.547 6.96 546.482 9.6228 560.092 14.9484C573.998 20.274 583.91 29.4459 589.827 42.464C595.744 55.1863 598.703 72.6424 598.703 94.8324C598.703 109.922 597.224 122.496 594.265 132.555C591.602 142.319 587.016 150.307 580.507 156.521C573.998 162.438 564.974 167.616 553.435 172.054C567.933 175.9 579.176 181.373 587.164 188.474C595.448 195.279 601.218 204.599 604.472 216.434C608.023 228.268 609.798 243.653 609.798 262.589C609.798 287.737 606.839 307.561 600.922 322.058C595.005 336.555 585.093 346.911 571.187 353.124C557.577 359.041 538.642 362 514.381 362H418.964ZM441.154 341.585H514.381C533.02 341.585 547.666 339.218 558.317 334.484C568.968 329.455 576.513 321.17 580.951 309.632C585.389 298.093 587.608 282.412 587.608 262.589C587.608 242.766 585.389 227.233 580.951 215.99C576.513 204.451 568.968 196.315 558.317 191.581C547.666 186.847 533.02 184.48 514.381 184.48H441.154V341.585ZM441.154 164.065H503.286C521.925 164.065 536.571 161.994 547.222 157.852C557.873 153.71 565.418 146.609 569.856 136.55C574.294 126.194 576.513 112.289 576.513 94.8324C576.513 77.6721 574.294 64.2102 569.856 54.4466C565.418 44.683 557.873 37.7301 547.222 33.588C536.571 29.4459 521.925 27.3748 503.286 27.3748H441.154V164.065ZM821.761 362V6.96H1009.93V27.3748H830.193L843.951 13.617V173.385L830.193 164.065H950.463V184.48H830.193L843.951 175.16V350.905L834.631 341.585H1009.93V362H821.761ZM1315.54 368.213C1295.12 368.213 1278.11 365.107 1264.5 358.893C1250.89 352.68 1239.94 342.621 1231.66 328.715C1223.37 314.513 1217.46 295.578 1213.91 271.909C1210.36 248.239 1208.58 218.948 1208.58 184.036C1208.58 149.124 1210.36 119.981 1213.91 96.6076C1217.46 72.9383 1223.37 54.1507 1231.66 40.245C1239.94 26.0434 1250.89 15.9839 1264.5 10.0666C1278.11 3.8534 1295.12 0.746805 1315.54 0.746805C1333.29 0.746805 1347.93 2.9658 1359.47 7.4038C1371.31 11.8418 1381.07 19.2385 1388.76 29.5938C1396.46 39.9491 1403.11 54.2987 1408.73 72.6424L1387.43 80.187C1382.7 65.0978 1377.23 53.2631 1371.01 44.683C1365.09 36.1029 1357.7 30.0376 1348.82 26.4872C1340.24 22.9368 1329.15 21.1616 1315.54 21.1616C1294.23 21.1616 1277.37 26.1913 1264.94 36.2508C1252.52 46.0144 1243.64 62.7309 1238.32 86.4002C1233.29 110.07 1230.77 142.615 1230.77 184.036C1230.77 225.458 1233.29 258.151 1238.32 282.116C1243.64 305.785 1252.52 322.65 1264.94 332.709C1277.37 342.769 1294.23 347.798 1315.54 347.798C1329.15 347.798 1340.24 346.023 1348.82 342.473C1357.7 338.922 1365.09 333.005 1371.01 324.721C1377.23 316.141 1382.7 304.602 1387.43 290.104L1408.73 297.205C1403.11 315.253 1396.46 329.455 1388.76 339.81C1381.07 350.165 1371.46 357.562 1359.92 362C1348.38 366.142 1333.58 368.213 1315.54 368.213ZM1697.03 362V6.96H1719.22V362H1697.03ZM1589.19 27.3748V6.96H1827.06V27.3748H1589.19Z" fill="white"/>
</svg>
