<svg width="133" height="38" viewBox="0 0 133 38" fill="none" xmlns="http://www.w3.org/2000/svg">
<path d="M35.6615 1.46154H1.16921C1.16921 27.9149 3.6163 36.5385 35.6615 36.5385V1.46154Z" stroke="white" stroke-width="2.33846"/>
<path d="M48.3993 31L54.7005 8.39487H56.9893L63.2622 31H61.0865L55.8308 11.8422L50.6033 31H48.3993ZM51.1402 25.2074L51.6488 23.2577H60.0127L60.5213 25.2074H51.1402ZM66.6137 31V8.39487H72.3215C73.9415 8.39487 75.213 8.58325 76.1361 8.96C77.078 9.31791 77.7467 9.92072 78.1423 10.7684C78.5567 11.5973 78.7639 12.7181 78.7639 14.1309C78.7639 15.0351 78.6886 15.7886 78.5379 16.3914C78.3872 16.9754 78.1329 17.4558 77.775 17.8325C77.4359 18.2093 76.9649 18.5483 76.3621 18.8497C77.1345 19.1323 77.7467 19.4996 78.1988 19.9517C78.6509 20.4038 78.9711 20.9972 79.1595 21.7319C79.3667 22.4477 79.4703 23.3708 79.4703 24.501C79.4703 26.1022 79.2631 27.3832 78.8487 28.3439C78.4531 29.2858 77.7844 29.9639 76.8425 30.3784C75.9194 30.7928 74.6479 31 73.0279 31H66.6137ZM68.7329 29.0503H73.0279C74.1393 29.0503 75.0058 28.9184 75.6275 28.6547C76.2679 28.3722 76.7106 27.9012 76.9555 27.2419C77.2192 26.5637 77.3511 25.6501 77.3511 24.501C77.3511 23.2954 77.2192 22.3724 76.9555 21.7319C76.7106 21.0726 76.2679 20.6205 75.6275 20.3756C75.0058 20.1307 74.1393 20.0083 73.0279 20.0083H68.7329V29.0503ZM68.7329 18.0586H72.3215C73.4517 18.0586 74.3277 17.955 74.9493 17.7477C75.571 17.5405 76.0042 17.1544 76.2491 16.5892C76.5128 16.0053 76.6447 15.1858 76.6447 14.1309C76.6447 13.1702 76.5128 12.4167 76.2491 11.8704C76.0042 11.3053 75.571 10.9097 74.9493 10.6836C74.3277 10.4576 73.4517 10.3446 72.3215 10.3446H68.7329V18.0586ZM83.7825 31V8.39487H96.4697V10.3446H84.4324L85.9018 8.87523V19.3866L84.4324 18.0586H92.6833V20.0083H84.4324L85.9018 18.6802V30.3784L84.5737 29.0503H96.4697V31H83.7825ZM107.083 31.3956C105.727 31.3956 104.587 31.1884 103.664 30.7739C102.76 30.3595 102.025 29.7002 101.46 28.796C100.914 27.8918 100.518 26.6956 100.273 25.2074C100.047 23.7004 99.9342 21.8543 99.9342 19.6692C99.9342 17.484 100.047 15.6473 100.273 14.1592C100.518 12.671 100.914 11.4748 101.46 10.5706C102.025 9.66641 102.76 9.01651 103.664 8.62092C104.587 8.20649 105.727 7.99928 107.083 7.99928C108.307 7.99928 109.315 8.1594 110.106 8.47964C110.916 8.79988 111.576 9.32733 112.084 10.062C112.612 10.7967 113.064 11.8045 113.441 13.0854L111.435 13.7918C111.133 12.7935 110.803 12.0117 110.446 11.4466C110.088 10.8814 109.645 10.4953 109.117 10.288C108.609 10.062 107.931 9.94897 107.083 9.94897C105.821 9.94897 104.823 10.241 104.088 10.8249C103.353 11.4089 102.826 12.4073 102.505 13.8201C102.204 15.2329 102.053 17.1826 102.053 19.6692C102.053 22.1369 102.204 24.0866 102.505 25.5183C102.826 26.9311 103.353 27.9389 104.088 28.5417C104.823 29.1445 105.821 29.4459 107.083 29.4459C107.931 29.4459 108.609 29.3329 109.117 29.1068C109.645 28.8808 110.088 28.4946 110.446 27.9483C110.803 27.402 111.133 26.6391 111.435 25.6595L113.441 26.3377C113.064 27.5998 112.612 28.6076 112.084 29.3611C111.576 30.0958 110.926 30.6232 110.135 30.9435C109.344 31.2449 108.326 31.3956 107.083 31.3956ZM122.557 31V8.39487H124.676V31H122.557ZM115.69 10.3446V8.39487H131.542V10.3446H115.69Z" fill="white"/>
</svg>
