<svg width="307" height="307" viewBox="0 0 307 307" fill="none" xmlns="http://www.w3.org/2000/svg">
<g clip-path="url(#clip0_195_93)">
<mask id="mask0_195_93" style="mask-type:luminance" maskUnits="userSpaceOnUse" x="0" y="0" width="307" height="307">
<path d="M307 0H0V307H307V0Z" fill="white"/>
</mask>
<g mask="url(#mask0_195_93)">
<mask id="mask1_195_93" style="mask-type:luminance" maskUnits="userSpaceOnUse" x="0" y="0" width="705" height="449">
<path d="M705 0H0V449H705V0Z" fill="white"/>
</mask>
<g mask="url(#mask1_195_93)">
<g opacity="0.1">
<mask id="mask2_195_93" style="mask-type:luminance" maskUnits="userSpaceOnUse" x="0" y="0" width="705" height="456">
<path d="M704.687 0H0V455.518H704.687V0Z" fill="white"/>
</mask>
<g mask="url(#mask2_195_93)">
<path d="M0 0V487.216" stroke="white" stroke-opacity="0.76" stroke-width="0.3695"/>
<path d="M23.6475 0V487.216" stroke="white" stroke-opacity="0.76" stroke-width="0.3695"/>
<path d="M47.2959 0V487.216" stroke="white" stroke-opacity="0.76" stroke-width="0.3695"/>
<path d="M70.9434 0V487.216" stroke="white" stroke-opacity="0.76" stroke-width="0.3695"/>
<path d="M94.5918 0V487.216" stroke="white" stroke-opacity="0.76" stroke-width="0.3695"/>
<path d="M118.24 0V487.216" stroke="white" stroke-opacity="0.76" stroke-width="0.3695"/>
<path d="M141.888 0V487.216" stroke="white" stroke-opacity="0.76" stroke-width="0.3695"/>
<path d="M165.536 0V487.216" stroke="white" stroke-opacity="0.76" stroke-width="0.3695"/>
<path d="M189.184 0V487.216" stroke="white" stroke-opacity="0.76" stroke-width="0.3695"/>
<path d="M212.832 0V487.216" stroke="white" stroke-opacity="0.76" stroke-width="0.3695"/>
<path d="M236.48 0V487.216" stroke="white" stroke-opacity="0.76" stroke-width="0.3695"/>
<path d="M260.128 0V487.216" stroke="white" stroke-opacity="0.76" stroke-width="0.3695"/>
<path d="M283.776 0V487.216" stroke="white" stroke-opacity="0.76" stroke-width="0.3695"/>
</g>
<path d="M0 0H704.687" stroke="white" stroke-opacity="0.76" stroke-width="0.3695"/>
<path d="M0 23.6479H704.687" stroke="white" stroke-opacity="0.76" stroke-width="0.3695"/>
<path d="M0 47.2959H704.687" stroke="white" stroke-opacity="0.76" stroke-width="0.3695"/>
<path d="M0 70.9441H704.687" stroke="white" stroke-opacity="0.76" stroke-width="0.3695"/>
<path d="M0 94.592H704.687" stroke="white" stroke-opacity="0.76" stroke-width="0.3695"/>
<path d="M0 118.24H704.687" stroke="white" stroke-opacity="0.76" stroke-width="0.3695"/>
<path d="M0 141.888H704.687" stroke="white" stroke-opacity="0.76" stroke-width="0.3695"/>
<path d="M0 165.536H704.687" stroke="white" stroke-opacity="0.76" stroke-width="0.3695"/>
<path d="M0 189.184H704.687" stroke="white" stroke-opacity="0.76" stroke-width="0.3695"/>
<path d="M0 212.832H704.687" stroke="white" stroke-opacity="0.76" stroke-width="0.3695"/>
<path d="M0 236.48H704.687" stroke="white" stroke-opacity="0.76" stroke-width="0.3695"/>
<path d="M0 260.128H704.687" stroke="white" stroke-opacity="0.76" stroke-width="0.3695"/>
<path d="M0 283.776H704.687" stroke="white" stroke-opacity="0.76" stroke-width="0.3695"/>
</g>
</g>
</g>
</g>
<defs>
<clipPath id="clip0_195_93">
<rect width="307" height="307" fill="white"/>
</clipPath>
</defs>
</svg>
