<svg width="19" height="14" viewBox="0 0 19 14" fill="none" xmlns="http://www.w3.org/2000/svg">
<path d="M17.3246 0.405383C16.7313 0.599424 15.5714 0.976528 14.7433 1.24871C13.3371 1.70923 12.6627 1.92829 9.34871 3.00517C8.6279 3.2374 7.90751 3.47359 7.74976 3.52715C7.47282 3.62198 6.13547 4.05483 3.64612 4.86392C2.99103 5.07683 2.08924 5.36921 1.64272 5.51891C1.19971 5.66423 0.772038 5.80383 0.694917 5.82841C0.617796 5.853 0.527942 5.90701 0.493286 5.95489C0.409939 6.0682 0.435575 6.26545 0.540615 6.34982C0.584381 6.38497 1.15752 6.62538 1.81212 6.88074C3.14233 7.40114 5.06539 8.15976 5.74538 8.42831C5.99189 8.52895 6.19416 8.62652 6.19633 8.64629C6.2011 8.68978 6.61617 10.1083 7.12644 11.8124C7.32112 12.4591 7.53106 13.1721 7.59566 13.397C7.72441 13.843 7.79964 13.9466 7.98101 13.9265C8.06775 13.9168 8.53772 13.5444 9.77234 12.5027L11.4533 11.0912L11.7991 11.2608C11.9931 11.3553 12.3604 11.5385 12.6143 11.6704C14.2373 12.4944 15.4062 13.0727 15.4715 13.0855C15.6173 13.1053 15.7322 13.0245 15.7906 12.8659C15.8213 12.7825 15.904 12.4811 15.9766 12.1969C16.2089 11.2586 16.4878 10.1271 16.6739 9.38606C16.7737 8.98677 16.9083 8.43153 16.9774 8.15172C17.043 7.8763 17.2167 7.16864 17.3637 6.58003C17.5145 5.99097 17.6826 5.30396 17.7433 5.0571C17.7996 4.80671 17.9294 4.28004 18.0297 3.8847C18.13 3.48936 18.2813 2.86824 18.3733 2.50584C18.4613 2.14389 18.6253 1.49333 18.7335 1.0611C18.9412 0.225615 18.9422 0.125457 18.746 0.0472226C18.6164 -0.00639789 18.4727 0.0295939 17.3246 0.405383ZM16.4511 1.35494C16.4528 1.37075 15.5717 1.96097 13.7929 3.13526C13.0188 3.64555 10.6452 5.21814 8.67742 6.52549C8.11547 6.89613 7.36765 7.39149 7.01348 7.61896L6.377 8.03791L6.10991 7.93155C5.55428 7.7052 3.47315 6.88812 2.60619 6.55232C2.10615 6.35981 1.69546 6.18137 1.69329 6.1616C1.69069 6.13788 2.09384 5.993 2.58329 5.83452C3.76333 5.45918 6.02526 4.72341 6.39071 4.59873C6.54846 4.54517 7.26885 4.30898 7.98966 4.07675C12.6678 2.55604 14.6098 1.92387 15.4836 1.63061C16.2342 1.37906 16.4472 1.31936 16.4511 1.35494ZM17.9655 1.66276C17.7574 2.49429 17.4222 3.8402 17.3553 4.13978C17.3113 4.32076 17.2101 4.74421 17.1239 5.08596C17.0372 5.42375 16.8881 6.02862 16.7878 6.42396C16.6915 6.81886 16.5085 7.55156 16.3875 8.04924C15.6106 11.1891 15.3317 12.2846 15.3076 12.3193C15.2935 12.3369 15.1858 12.3009 15.0716 12.2415C14.9529 12.1787 14.6697 12.0341 14.4372 11.9159C10.1668 9.76951 9.30479 9.33311 9.30262 9.31334C9.30219 9.30939 9.48679 9.13679 9.70734 8.92817C10.2335 8.44946 10.5413 8.16311 10.9684 7.76344C11.1565 7.58645 11.8742 6.92635 12.5631 6.29348C13.9618 5.00139 14.1722 4.8099 14.6651 4.35491C14.8532 4.17791 15.3859 3.68646 15.8428 3.26748C16.3032 2.8441 16.9767 2.21693 17.3463 1.87569C17.7155 1.53048 18.0259 1.26785 18.0359 1.28674C18.0464 1.30959 18.013 1.47739 17.9655 1.66276ZM15.3977 2.84874C15.3587 2.8931 14.9536 3.27432 14.4932 3.69769C14.0367 4.12063 13.5071 4.60374 13.3264 4.7759C13.1414 4.94455 12.8371 5.22651 12.656 5.39472C12.4714 5.56732 11.6344 6.34073 10.7969 7.11019C8.53574 9.19853 8.50286 9.22619 8.47601 9.34524C8.43643 9.49371 8.15146 10.9701 8.03336 11.6395C7.98267 11.9413 7.93114 12.1992 7.92018 12.2084C7.88509 12.2523 7.82346 12.1271 7.77287 11.9206C7.74408 11.8038 7.65768 11.4892 7.57606 11.2182C7.11642 9.68452 6.85672 8.80896 6.81744 8.66926L6.77556 8.50584L7.3441 8.12246C7.65621 7.91167 8.41542 7.41104 9.02954 7.00658C9.64366 6.60213 10.6409 5.94296 11.2432 5.53982C11.8455 5.13668 12.9356 4.41516 13.6615 3.93825C14.3874 3.46133 15.0756 3.00462 15.1865 2.92425C15.4158 2.75869 15.5004 2.72927 15.3977 2.84874ZM9.95686 10.3291C10.4428 10.5752 10.8487 10.7822 10.853 10.7857C10.8618 10.7928 10.333 11.2477 9.67934 11.8007C9.0252 12.3496 8.47543 12.795 8.46187 12.7805C8.44874 12.7699 8.51753 12.3421 8.61269 11.8272C8.71222 11.3159 8.81444 10.7563 8.84396 10.5889C8.93565 10.0425 8.97129 9.89445 9.02255 9.88875C9.05015 9.88568 9.46695 10.0834 9.95686 10.3291Z" fill="#1A0B05"/>
<path d="M17.9655 1.66276C17.7574 2.49429 17.4222 3.8402 17.3553 4.13978C17.3113 4.32076 17.2101 4.74421 17.1239 5.08596C17.0372 5.42375 16.8881 6.02862 16.7878 6.42396C16.6915 6.81886 16.5085 7.55156 16.3875 8.04924C15.6106 11.1891 15.3317 12.2846 15.3076 12.3193C15.2935 12.3369 15.1858 12.3009 15.0716 12.2415C14.9529 12.1787 14.6697 12.0341 14.4372 11.9159C10.1668 9.76951 9.30479 9.33311 9.30262 9.31334C9.30219 9.30939 9.48679 9.13679 9.70734 8.92817C10.2335 8.44946 10.5413 8.16311 10.9684 7.76344C11.1565 7.58645 11.8742 6.92635 12.5631 6.29348C13.9618 5.00139 14.1722 4.8099 14.6651 4.35491C14.8532 4.17791 15.3859 3.68646 15.8428 3.26748C16.3032 2.8441 16.9767 2.21693 17.3463 1.87569C17.7155 1.53048 18.0259 1.26785 18.0359 1.28674C18.0464 1.30959 18.013 1.47739 17.9655 1.66276Z" fill="white"/>
<path d="M16.4511 1.35494C16.4528 1.37075 15.5717 1.96097 13.7929 3.13526C13.0188 3.64555 10.6452 5.21814 8.67742 6.52549C8.11547 6.89613 7.36765 7.39149 7.01348 7.61896L6.377 8.03791L6.10991 7.93155C5.55428 7.7052 3.47315 6.88812 2.60619 6.55232C2.10615 6.35981 1.69546 6.18137 1.69329 6.1616C1.69069 6.13788 2.09384 5.993 2.58329 5.83452C3.76333 5.45918 6.02526 4.72341 6.39071 4.59873C6.54846 4.54517 7.26885 4.30898 7.98966 4.07675C12.6678 2.55604 14.6098 1.92387 15.4836 1.63061C16.2342 1.37906 16.4472 1.31936 16.4511 1.35494Z" fill="white"/>
<path d="M15.3977 2.84874C15.3587 2.8931 14.9536 3.27432 14.4932 3.69769C14.0367 4.12063 13.5071 4.60374 13.3264 4.7759C13.1414 4.94455 12.8371 5.22651 12.656 5.39472C12.4714 5.56732 11.6344 6.34073 10.7969 7.11019C8.53574 9.19853 8.50286 9.22619 8.47601 9.34524C8.43643 9.49371 8.15146 10.9701 8.03336 11.6395C7.98267 11.9413 7.93114 12.1992 7.92018 12.2084C7.88509 12.2523 7.82346 12.1271 7.77287 11.9206C7.74408 11.8038 7.65768 11.4892 7.57606 11.2182C7.11642 9.68452 6.85672 8.80896 6.81744 8.66926L6.77556 8.50584L7.3441 8.12246C7.65621 7.91167 8.41542 7.41104 9.02954 7.00658C9.64366 6.60213 10.6409 5.94296 11.2432 5.53982C11.8455 5.13668 12.9356 4.41516 13.6615 3.93825C14.3874 3.46133 15.0756 3.00462 15.1865 2.92425C15.4158 2.75869 15.5004 2.72927 15.3977 2.84874Z" fill="white"/>
<path d="M9.95686 10.3291C10.4428 10.5752 10.8487 10.7822 10.853 10.7857C10.8618 10.7928 10.333 11.2477 9.67934 11.8007C9.0252 12.3496 8.47543 12.795 8.46187 12.7805C8.44874 12.7699 8.51753 12.3421 8.61269 11.8272C8.71222 11.3159 8.81444 10.7563 8.84396 10.5889C8.93565 10.0425 8.97129 9.89445 9.02255 9.88875C9.05015 9.88568 9.46695 10.0834 9.95686 10.3291Z" fill="white"/>
</svg>
